<svg width="500" height="713" viewBox="0 0 500 713" fill="none" xmlns="http://www.w3.org/2000/svg">
<path d="M500 0L308.334 712.07H201.756L393.422 0H500Z" fill="white"/>
<path d="M69.6969 630.176C50.5302 630.176 34.074 623.4 20.3283 609.848C6.77609 596.102 0 579.646 0 560.479C0 541.506 6.77609 525.244 20.3283 511.691C34.074 498.139 50.5302 491.363 69.6969 491.363C88.2827 491.363 104.545 498.139 118.485 511.691C132.424 525.244 139.394 541.506 139.394 560.479C139.394 573.257 136.103 584.97 129.52 595.618C123.131 606.073 114.709 614.494 104.255 620.883C93.8004 627.078 82.281 630.176 69.6969 630.176Z" fill="white"/>
</svg>
