<svg width="651" height="117" viewBox="0 0 651 117" fill="none" xmlns="http://www.w3.org/2000/svg">
<path d="M10.8551 93.108C8.04261 93.108 5.62784 92.1136 3.6108 90.125C1.62216 88.108 0.627841 85.6932 0.627841 82.8807C0.627841 80.0966 1.62216 77.7102 3.6108 75.7216C5.62784 73.733 8.04261 72.7386 10.8551 72.7386C13.5824 72.7386 15.9688 73.733 18.0142 75.7216C20.0597 77.7102 21.0824 80.0966 21.0824 82.8807C21.0824 84.7557 20.5994 86.4744 19.6335 88.0369C18.696 89.571 17.4602 90.8068 15.9261 91.7443C14.392 92.6534 12.7017 93.108 10.8551 93.108ZM73.9979 0.636358L45.8729 105.125H30.2337L58.3587 0.636358H73.9979ZM82.7443 92V26.5455H100.344V37.9659H101.026C102.219 33.9034 104.222 30.8352 107.034 28.7614C109.847 26.6591 113.085 25.608 116.75 25.608C117.659 25.608 118.639 25.6648 119.69 25.7784C120.741 25.892 121.665 26.0483 122.46 26.2472V42.3551C121.608 42.0994 120.429 41.8722 118.923 41.6733C117.418 41.4744 116.04 41.375 114.79 41.375C112.119 41.375 109.733 41.9574 107.631 43.1222C105.557 44.2585 103.909 45.8494 102.688 47.8949C101.494 49.9403 100.898 52.2983 100.898 54.9688V92H82.7443ZM158.629 93.2784C151.896 93.2784 146.1 91.9148 141.242 89.1875C136.413 86.4318 132.691 82.5398 130.077 77.5114C127.464 72.4545 126.157 66.4744 126.157 59.571C126.157 52.8381 127.464 46.929 130.077 41.8438C132.691 36.7585 136.37 32.7955 141.114 29.9545C145.887 27.1136 151.484 25.6932 157.904 25.6932C162.222 25.6932 166.242 26.3892 169.964 27.7812C173.714 29.1449 176.981 31.2045 179.765 33.9602C182.577 36.7159 184.765 40.1818 186.327 44.358C187.89 48.5057 188.671 53.3636 188.671 58.9318V63.9176H133.401V52.6676H171.583C171.583 50.054 171.015 47.7386 169.879 45.7216C168.742 43.7045 167.165 42.1278 165.148 40.9915C163.16 39.8267 160.844 39.2443 158.202 39.2443C155.447 39.2443 153.004 39.8835 150.873 41.1619C148.771 42.4119 147.123 44.1023 145.93 46.233C144.737 48.3352 144.126 50.679 144.097 53.2642V63.9602C144.097 67.1989 144.694 69.9972 145.887 72.3551C147.109 74.7131 148.827 76.5312 151.043 77.8097C153.259 79.0881 155.887 79.7273 158.927 79.7273C160.944 79.7273 162.79 79.4432 164.467 78.875C166.143 78.3068 167.577 77.4545 168.771 76.3182C169.964 75.1818 170.873 73.7898 171.498 72.142L188.288 73.25C187.435 77.2841 185.688 80.8068 183.046 83.8182C180.433 86.8011 177.052 89.1307 172.904 90.8068C168.785 92.4545 164.026 93.2784 158.629 93.2784ZM200.518 116.545V26.5455H218.415V37.5398H219.225C220.021 35.7784 221.171 33.9886 222.677 32.1705C224.211 30.3239 226.2 28.7898 228.643 27.5682C231.114 26.3182 234.183 25.6932 237.847 25.6932C242.62 25.6932 247.023 26.9432 251.058 29.4432C255.092 31.9148 258.316 35.6506 260.731 40.6506C263.146 45.6222 264.353 51.858 264.353 59.358C264.353 66.6591 263.174 72.8239 260.816 77.8523C258.487 82.8523 255.305 86.6449 251.271 89.2301C247.265 91.7869 242.776 93.0653 237.805 93.0653C234.282 93.0653 231.285 92.483 228.813 91.3182C226.37 90.1534 224.367 88.6903 222.805 86.929C221.242 85.1392 220.049 83.3352 219.225 81.517H218.671V116.545H200.518ZM218.288 59.2727C218.288 63.1648 218.827 66.5597 219.907 69.4574C220.987 72.3551 222.549 74.6136 224.594 76.233C226.64 77.8239 229.126 78.6193 232.052 78.6193C235.006 78.6193 237.506 77.8097 239.552 76.1903C241.597 74.5426 243.146 72.2699 244.197 69.3722C245.276 66.446 245.816 63.0795 245.816 59.2727C245.816 55.4943 245.29 52.1705 244.239 49.3011C243.188 46.4318 241.64 44.1875 239.594 42.5682C237.549 40.9489 235.035 40.1392 232.052 40.1392C229.097 40.1392 226.597 40.9205 224.552 42.483C222.535 44.0455 220.987 46.2614 219.907 49.1307C218.827 52 218.288 55.3807 218.288 59.2727ZM306.029 93.2784C299.41 93.2784 293.685 91.8722 288.856 89.0597C284.055 86.2187 280.347 82.2699 277.734 77.2131C275.12 72.1278 273.813 66.233 273.813 59.5284C273.813 52.767 275.12 46.858 277.734 41.8011C280.347 36.7159 284.055 32.767 288.856 29.9545C293.685 27.1136 299.41 25.6932 306.029 25.6932C312.648 25.6932 318.359 27.1136 323.16 29.9545C327.989 32.767 331.711 36.7159 334.325 41.8011C336.938 46.858 338.245 52.767 338.245 59.5284C338.245 66.233 336.938 72.1278 334.325 77.2131C331.711 82.2699 327.989 86.2187 323.16 89.0597C318.359 91.8722 312.648 93.2784 306.029 93.2784ZM306.114 79.2159C309.126 79.2159 311.64 78.3636 313.657 76.6591C315.674 74.9261 317.194 72.5682 318.217 69.5852C319.268 66.6023 319.793 63.2074 319.793 59.4006C319.793 55.5938 319.268 52.1989 318.217 49.2159C317.194 46.233 315.674 43.875 313.657 42.142C311.64 40.4091 309.126 39.5426 306.114 39.5426C303.075 39.5426 300.518 40.4091 298.444 42.142C296.398 43.875 294.85 46.233 293.799 49.2159C292.776 52.1989 292.265 55.5938 292.265 59.4006C292.265 63.2074 292.776 66.6023 293.799 69.5852C294.85 72.5682 296.398 74.9261 298.444 76.6591C300.518 78.3636 303.075 79.2159 306.114 79.2159ZM404.509 45.2102L387.89 46.233C387.606 44.8125 386.995 43.5341 386.058 42.3977C385.12 41.233 383.884 40.3097 382.35 39.6278C380.844 38.9176 379.04 38.5625 376.938 38.5625C374.126 38.5625 371.754 39.1591 369.822 40.3523C367.89 41.517 366.924 43.0795 366.924 45.0398C366.924 46.6023 367.549 47.9233 368.799 49.0028C370.049 50.0824 372.194 50.9489 375.234 51.6023L387.08 53.9886C393.444 55.2955 398.188 57.3977 401.313 60.2955C404.438 63.1932 406.001 67 406.001 71.7159C406.001 76.0057 404.737 79.7699 402.208 83.0085C399.708 86.2472 396.271 88.7756 391.896 90.5938C387.549 92.3835 382.535 93.2784 376.853 93.2784C368.188 93.2784 361.285 91.4744 356.143 87.8665C351.029 84.2301 348.032 79.2869 347.151 73.0369L365.006 72.0994C365.546 74.7415 366.853 76.7585 368.927 78.1506C371.001 79.5142 373.657 80.196 376.896 80.196C380.077 80.196 382.634 79.5852 384.566 78.3636C386.526 77.1136 387.521 75.5085 387.549 73.5483C387.521 71.9006 386.825 70.5511 385.461 69.5C384.097 68.4205 381.995 67.5966 379.154 67.0284L367.819 64.7699C361.427 63.4915 356.668 61.2756 353.543 58.1222C350.447 54.9687 348.898 50.9489 348.898 46.0625C348.898 41.858 350.035 38.2358 352.308 35.196C354.609 32.1562 357.833 29.8125 361.981 28.1648C366.157 26.517 371.043 25.6932 376.64 25.6932C384.907 25.6932 391.413 27.4403 396.157 30.9347C400.93 34.429 403.714 39.1875 404.509 45.2102ZM447.006 93.2784C440.301 93.2784 434.534 91.858 429.705 89.017C424.903 86.1477 421.21 82.1705 418.625 77.0852C416.068 72 414.79 66.1477 414.79 59.5284C414.79 52.8239 416.082 46.9432 418.668 41.8864C421.281 36.8011 424.989 32.8381 429.79 29.9972C434.591 27.1278 440.301 25.6932 446.92 25.6932C452.631 25.6932 457.631 26.7301 461.92 28.804C466.21 30.8778 469.605 33.7898 472.105 37.5398C474.605 41.2898 475.983 45.6932 476.239 50.75H459.108C458.625 47.483 457.347 44.8551 455.273 42.8665C453.227 40.8494 450.543 39.8409 447.219 39.8409C444.406 39.8409 441.949 40.608 439.847 42.142C437.773 43.6477 436.153 45.8494 434.989 48.7472C433.824 51.6449 433.241 55.1534 433.241 59.2727C433.241 63.4489 433.81 67 434.946 69.9261C436.111 72.8523 437.744 75.0824 439.847 76.6165C441.949 78.1506 444.406 78.9176 447.219 78.9176C449.293 78.9176 451.153 78.4915 452.801 77.6392C454.477 76.7869 455.855 75.5511 456.935 73.9318C458.043 72.2841 458.767 70.3097 459.108 68.0085H476.239C475.955 73.0085 474.591 77.4119 472.148 81.2188C469.733 84.9972 466.395 87.9517 462.134 90.0824C457.872 92.2131 452.83 93.2784 447.006 93.2784ZM506.526 93.2358C502.35 93.2358 498.629 92.5114 495.362 91.0625C492.094 89.5852 489.509 87.4119 487.606 84.5426C485.731 81.6449 484.793 78.0369 484.793 73.7188C484.793 70.0824 485.461 67.0284 486.796 64.5568C488.131 62.0852 489.95 60.0966 492.251 58.5909C494.552 57.0852 497.165 55.9489 500.092 55.1818C503.046 54.4148 506.143 53.875 509.381 53.5625C513.188 53.1648 516.256 52.7955 518.586 52.4545C520.915 52.0852 522.606 51.5455 523.657 50.8352C524.708 50.125 525.234 49.0739 525.234 47.6818V47.4261C525.234 44.7273 524.381 42.6392 522.677 41.1619C521.001 39.6847 518.614 38.946 515.518 38.946C512.251 38.946 509.651 39.6705 507.719 41.1193C505.788 42.5398 504.509 44.3295 503.884 46.4886L487.094 45.125C487.947 41.1477 489.623 37.7102 492.123 34.8125C494.623 31.8864 497.847 29.642 501.796 28.0795C505.773 26.4886 510.376 25.6932 515.603 25.6932C519.239 25.6932 522.719 26.1193 526.043 26.9716C529.396 27.8239 532.364 29.1449 534.95 30.9347C537.563 32.7244 539.623 35.0256 541.129 37.8381C542.634 40.6222 543.387 43.9602 543.387 47.8523V92H526.171V82.9233H525.66C524.609 84.9688 523.202 86.7727 521.441 88.3352C519.68 89.8693 517.563 91.0767 515.092 91.9574C512.62 92.8097 509.765 93.2358 506.526 93.2358ZM511.725 80.7074C514.396 80.7074 516.754 80.1818 518.799 79.1307C520.844 78.0511 522.45 76.6023 523.614 74.7841C524.779 72.9659 525.362 70.9062 525.362 68.6051V61.6591C524.793 62.0284 524.012 62.3693 523.018 62.6818C522.052 62.9659 520.958 63.2358 519.737 63.4915C518.515 63.7187 517.293 63.9318 516.072 64.1307C514.85 64.3011 513.742 64.4574 512.748 64.5994C510.617 64.9119 508.756 65.4091 507.165 66.0909C505.575 66.7727 504.339 67.696 503.458 68.8608C502.577 69.9972 502.137 71.4176 502.137 73.1222C502.137 75.5938 503.032 77.483 504.822 78.7898C506.64 80.0682 508.941 80.7074 511.725 80.7074ZM575.624 4.72727V92H557.471V4.72727H575.624ZM619.996 93.2784C613.263 93.2784 607.467 91.9148 602.609 89.1875C597.78 86.4318 594.058 82.5398 591.445 77.5114C588.831 72.4545 587.524 66.4744 587.524 59.571C587.524 52.8381 588.831 46.929 591.445 41.8438C594.058 36.7585 597.737 32.7955 602.482 29.9545C607.254 27.1136 612.851 25.6932 619.271 25.6932C623.589 25.6932 627.609 26.3892 631.331 27.7812C635.081 29.1449 638.348 31.2045 641.132 33.9602C643.945 36.7159 646.132 40.1818 647.695 44.358C649.257 48.5057 650.038 53.3636 650.038 58.9318V63.9176H594.768V52.6676H632.95C632.95 50.054 632.382 47.7386 631.246 45.7216C630.109 43.7045 628.533 42.1278 626.516 40.9915C624.527 39.8267 622.212 39.2443 619.57 39.2443C616.814 39.2443 614.371 39.8835 612.24 41.1619C610.138 42.4119 608.49 44.1023 607.297 46.233C606.104 48.3352 605.493 50.679 605.464 53.2642V63.9602C605.464 67.1989 606.061 69.9972 607.254 72.3551C608.476 74.7131 610.195 76.5312 612.411 77.8097C614.626 79.0881 617.254 79.7273 620.294 79.7273C622.311 79.7273 624.158 79.4432 625.834 78.875C627.51 78.3068 628.945 77.4545 630.138 76.3182C631.331 75.1818 632.24 73.7898 632.865 72.142L649.655 73.25C648.803 77.2841 647.055 80.8068 644.413 83.8182C641.8 86.8011 638.419 89.1307 634.271 90.8068C630.152 92.4545 625.393 93.2784 619.996 93.2784Z" fill="white"/>
</svg>
